<?xml version="1.0" encoding="UTF-8" standalone="no"?>
<!-- Created with Inkscape (http://www.inkscape.org/) -->

<svg
   version="1.1"
   id="svg1"
   width="924.87793"
   height="935.61322"
   viewBox="0 0 924.87793 935.61322"
   xmlns="http://www.w3.org/2000/svg"
   xmlns:svg="http://www.w3.org/2000/svg">
  <defs
     id="defs1" />
  <g
     id="g1"
     transform="translate(-966.23627,-263.83734)">
    <path
       style="fill:#c6a87f;stroke:none"
       d="m 1402,265.85189 c -26.58,3.48963 -52.7464,5.23584 -79,11.45984 -69.8814,16.5669 -136.3034,49.94617 -191,96.54322 -48.373,41.20984 -89.144,91.60119 -117.6296,148.57251 C 913.1809,724.80648 976.1403,979.7477 1160,1112.1335 c 45.4563,32.7302 96.9141,57.5121 151,72.1427 59.2415,16.0253 121.3441,18.8453 182,10.8696 227.4771,-29.9116 403.5603,-243.128 397.9854,-470.71834 C 1886.0072,521.20144 1749.8319,340.28598 1554,283.00302 c -46.9464,-13.7323 -102.9945,-23.58484 -152,-17.15113 m 427,261.57557 c -12.1446,-7.01874 -22.0412,-17.02265 -35,-23.11036 -39.0114,-18.32672 -87.6725,-19.34661 -126,1.41901 -17.6831,9.58063 -29.7096,23.36249 -45,35.69135 0.388,-9.03174 2.7632,-17.92957 2.9854,-27 0.7337,-29.9571 -4.8562,-60.06617 -18.3557,-87 C 1571.6585,355.6589 1480.1702,317.61471 1406,351.29171 c -33.9029,15.39368 -59.0741,47.02637 -67.3487,83.13575 -1.8751,8.18274 -7.0518,28.79602 -0.2176,35.56555 3.0025,2.974 6.6131,1.92505 9.3819,-0.71448 10.4094,-9.92334 16.9144,-20.02026 30.1844,-27.06934 27.9291,-14.83593 62.8213,-10.11718 84.8295,13.25757 31.8995,33.88019 23.0933,92.73975 -15.8295,117.52472 -64.7315,41.21942 -133.6834,-2.67279 -196,-24.87189 -21.1601,-7.5379 -42.457,-14.05889 -65,-15.60266 -59.0971,-4.04705 -120.9583,22.20893 -159.5748,66.91053 -17.6976,20.48639 -32.9617,43.03381 -41.4252,69 h -1 c 0.4851,-23.50299 6.7394,-53.9386 17.2701,-75 9.9086,-19.81726 27.4688,-36.96918 44.7299,-50.42438 61.1612,-47.67572 138.1679,-56.89264 210,-29.89124 36.5034,13.72144 71.0835,33.9646 110,40.39588 21.2809,3.51684 44.6151,1.43066 60.8295,-14.36652 12.3364,-12.01904 17.7546,-30.45746 11.0764,-46.71374 -8.5862,-20.90076 -35.418,-28.74549 -52.8666,-13.67127 -5.8756,5.07611 -10.1596,12.87195 -10.861,20.67127 -0.3577,3.97674 1.5089,10.16015 6.7785,9.02929 6.1117,-1.31158 5.4827,-10.63263 7.7307,-15.02545 4.8733,-9.5227 18.2162,-11.98102 27.3125,-7.60107 16.8092,8.09375 14.245,31.47058 3.6743,43.55713 -5.8487,6.68756 -15.1151,10.53106 -23.6743,12.23223 -24.9278,4.95447 -51.2306,-4.88421 -74,-13.9923 -38.269,-15.30817 -75.6145,-35.34241 -117,-40.91742 -50.5534,-6.81006 -101.5372,4.88714 -145,31.52856 -9.6794,5.93317 -19.4812,12.84515 -28,20.35876 -5.0661,4.46833 -9.9893,10.80292 -16,13.83027 21.1888,-74.11805 97.8786,-103.07532 169,-99.9607 33.8496,1.48242 71.8575,15.51428 102,-7.27844 16.303,-12.32776 27.4507,-33.22791 19.9066,-53.76086 -8.5351,-23.23059 -39.5992,-31.24097 -56.8132,-12.98536 -7.0137,7.43811 -9.9851,17.04639 -6.8727,26.98536 1.241,3.96301 4.4057,10.73437 9.7245,8.63195 6.7908,-2.6842 2.5249,-9.8081 1.9043,-14.63195 -0.8181,-6.35865 1.7273,-12.13953 7.1659,-15.52088 11.7799,-7.32385 28.2173,-1.4436 33.1698,11.52088 3.6807,9.63501 1.2931,20.59875 -4.2902,29 -21.6553,32.58508 -65.4261,19.16711 -96.895,16.1698 -12.216,-1.16358 -25.7595,-0.91871 -38,-0.0803 -21.5051,1.4729 -43.9966,6.3584 -64,14.35962 -9.5675,3.82691 -18.2795,10.47461 -28,13.55091 5.6592,-17.06287 25.496,-35.47583 38,-48 32.8312,-32.88404 67.5204,-61.7566 108,-84.84961 117.398,-66.97388 263.2932,-76.01575 388,-23.72596 49.5919,20.79395 94.1911,50.44922 134,86.40577 28.1889,25.46093 52.3523,55.54406 73.3325,87.1698 8.3084,12.52404 19.4081,27.51934 23.6675,42 m -148,104 c 5.3114,10.85968 15.7215,21.81451 29,20.67132 7.579,-0.65253 15.4007,-6.31903 22.9599,-2.96765 6.1682,2.73462 7.7551,26.56244 16.7223,19.53864 10.6953,-8.37745 -5.9255,-28.3476 -13.6822,-31.70917 -10.1756,-4.40985 -18.9288,3.22394 -29,2.35809 -16.7452,-1.43963 -19.0321,-22.78229 -10.4675,-33.88739 25.1045,-32.55133 72.5107,-0.448 83.4027,27.99616 22.9942,60.04864 -8.2194,128.21215 -60.9352,160.93597 -24.7257,15.34863 -56.9558,22.98389 -86,23.06403 v -1 c 33.8477,-15.83277 60.8,-32.43171 83.6258,-63 5.947,-7.96424 12.0887,-16.82172 16.0216,-26 1.6161,-3.77155 1.9137,-10.18866 -3.6597,-10.8241 -7.1038,-0.80988 -13.6451,17.86011 -16.8518,22.8241 -13.3717,20.70001 -32.4039,39.74627 -54.1359,51.68829 -27.6218,15.17865 -60.0725,26.40869 -92,24.22223 -26.2169,-1.79535 -50.3528,-11.13696 -76,-14.91052 v -1 c 60.6482,0 117.2334,-12.69226 164,-53.84491 12.6031,-11.09021 24.3363,-24.12506 33.6443,-38.15509 2.7992,-4.21924 9.3666,-13.1565 3.1265,-17.33796 -4.6861,-3.14007 -8.968,4.19904 -11.1002,7.33796 -8.0555,11.85907 -16.487,22.86413 -26.6706,32.9992 -35.7752,35.60498 -87.7704,55.75574 -138,56.98615 -36.3122,0.88946 -73.468,-5.07263 -107,-19.41284 -35.1391,-15.02753 -66.0949,-38.06067 -100,-55.46448 -69.6539,-35.75409 -145.9541,-60.32483 -224,-38.956 -20.6688,5.65912 -41.3809,15.06134 -59,27.28315 -11.2581,7.80944 -20.88,17.73901 -32,25.56482 3.177,-13.88392 15.6107,-27.53199 24.7184,-38 35.276,-40.54444 85.1526,-56.10395 137.2816,-56 19.5697,0.039 39.8919,5.41705 58,12.60107 4.8335,1.9176 15.5207,8.53357 18.9136,1.28937 3.619,-7.72693 -14.1202,-12.78961 -18.9136,-14.68671 -21.3371,-8.44458 -47.0478,-13.16937 -70,-12.16437 -66.1889,2.89826 -123.2608,35.75147 -157,92.96064 h -1 c 5.608,-28.90021 15.9641,-57.49097 32.3333,-82 48.5792,-72.73554 137.4474,-102.05109 219.6667,-74.64502 66.418,22.13897 139.7016,71.96173 210,31.77234 56.888,-32.52259 66.9047,-120.40833 6,-155.25452 -8.951,-5.12134 -18.7878,-8.83814 -29,-10.43384 -18.6482,-2.91394 -36.0202,2.50147 -53,9.56104 27.4673,-42.02832 96.2172,-42.07703 136,-21.11109 16.6801,8.79053 29.8771,21.07605 41.0393,36.09571 2.4519,3.29919 7.5413,8.23608 11.4222,3.6936 4.9481,-5.79187 -7.2571,-17.69861 -10.7477,-21.67822 -15.5883,-17.7721 -35.0788,-30.96094 -57.7138,-37.97449 -34.5073,-10.69226 -76.6902,-7.94837 -107,12.86255 -12.7893,8.78113 -20.4839,21.60022 -32,31.11194 1.2572,-14.39966 10.2066,-28.96192 19.0039,-40 33.9673,-42.61902 91.1068,-51.99207 140.9961,-34.99695 80.1128,27.29101 118.3532,117.62823 93.9745,195.99695 -6.4735,20.80999 -17.4277,40.01287 -30.9784,57 -11.6859,14.64947 -27.0062,26.75268 -42.9961,36.39892 -59.6908,36.00977 -130.7639,32.45636 -193,4.73999 -31.1142,-13.8565 -58.55,-33.66858 -88,-50.4198 -37.8102,-21.50653 -80.1666,-30.14898 -123,-21.71838 -10.2444,2.01636 -33.3396,5.60089 -39.3526,15.10419 -2.8031,4.43011 1.8453,8.82971 6.3534,8.17669 9.4,-1.36169 18.6893,-7.41766 27.9992,-9.80322 20.7028,-5.30481 43.0052,-5.72937 64,-2.23151 68.5963,11.42853 116.5368,65.82953 169,106.25312 27.4776,21.17175 58.7863,36.88281 92,46.77929 63.6485,18.96491 137.1754,5.29175 183.9106,-44.28314 12.2712,-13.01678 22.5,-27.68744 31.6898,-42.99615 5.109,-8.51069 9.8384,-20.56592 17.3996,-27 m -69.9414,-265.21378 c -10.0948,3.53259 1.8621,15.38257 5.0178,19.21375 13.5951,16.505 23.4671,36.81152 30.2561,57 2.9292,8.71069 3.1982,22.11267 7.9815,29.72143 4.3088,6.85394 13.5433,0.81494 18.686,-1.26843 13.8012,-5.59107 29.9578,-10.19995 44.9961,-9.37427 7.4639,0.40979 23.3372,5.58313 29.7755,1.7384 12.2229,-7.29907 -8.3022,-12.53015 -12.7716,-13.2268 -17.441,-2.71839 -36.1666,-0.94116 -53,4.12964 -3.9697,1.1958 -14.7738,7.69653 -18.0625,3.86877 -4.8553,-5.65124 -5.2691,-19.43542 -7.8016,-26.58874 -6.0354,-17.04798 -14.4734,-33.31543 -24.9955,-48 -3.7447,-5.2262 -11.9985,-20.04236 -20.0818,-17.21375 M 1501,618.42746 c 27.6409,-27.64057 47.1011,-62.40107 41.5749,-103 -1.897,-13.93586 -5.3672,-27.42603 -11.8341,-40 -2.2608,-4.39576 -6.4307,-12.33106 -12.5926,-8.81641 -6.3553,3.625 -0.7644,11.54413 1.5431,15.81641 7.6569,14.17627 12.6821,32.77496 11.1389,49 -4.4574,46.86383 -35.509,86.95465 -81.8302,99.11572 -14.7561,3.87402 -28.405,1.7522 -43.2855,2.09802 -5.7178,0.13287 -10.108,6.77875 -4.4861,10.69678 3.7099,2.58545 8.5381,1.85467 12.7716,2.25921 11.2293,1.073 22.7693,1.49427 34,0.11499 46.017,-5.65148 85.7537,-23.40429 111.997,-63.28472 9.8261,-14.93219 15.4736,-31.57965 18.8063,-49 0.9321,-4.87238 3.3795,-14.51264 -1.237,-18.24231 -9.5163,-7.68848 -10.8505,15.89196 -11.777,20.24231 -7.1953,33.78546 -32.5805,69.12085 -64.7893,83 m 250,167 c 4.4283,-7.73304 12.7663,-13.8852 18.3379,-21 10.0353,-12.8147 17.6216,-27.66254 22.9668,-43 11.2096,-32.16413 10.9387,-71.67682 -5.6172,-102 -14.9095,-27.30793 -47.5277,-46.98621 -78.6875,-35.91053 -20.893,7.4264 -30.222,26.85291 -40.4244,44.91053 -13.5618,24.00347 -27.2822,47.75915 -47.3356,67.03936 -68.0519,65.42817 -167.5582,53.74891 -241.24,4.62732 -14.8261,-9.88421 -33.7324,-20.73669 -45,-34.66668 20.1498,3.58062 39.5181,14.42999 60,18.5509 53.5972,10.78357 108.8809,0.31464 154,-30.98608 17.8897,-12.41065 33.5844,-27.62037 45.9745,-45.56482 12.4539,-18.03669 21.2277,-38.12769 35.4645,-55 30.9116,-36.63379 75.2303,-54.06818 122.561,-47.84107 15.2931,2.01209 31.6286,7.62415 45,15.26856 12.1208,6.92938 22.4157,15.32678 31.9097,25.57251 59.1426,63.82513 25.9529,164.78314 -34.9097,213.39965 -12.3783,9.88764 -27.7347,21.76978 -43,26.60035 m -31,-250.57483 c -68.718,9.35449 -86.0519,84.87542 -128.0393,128.57403 -16.3546,17.02112 -39.01,30.33838 -61.9607,36.10572 -10.2002,2.56323 -23.447,1.53619 -32.9414,5.49462 -7.0107,2.92298 -3.1117,10.61084 2.9422,11.29169 11.3117,1.27222 24.1202,-2.50995 34.9992,-5.26544 39.855,-10.09473 69.7984,-36.95801 91.997,-70.62579 19.4641,-29.52039 35.1114,-65.58271 67.003,-83.98536 34.3459,-19.81878 78.3146,-8.59753 103.8264,19.98536 10.6619,11.94525 15.404,26.05694 20.0217,40.98455 1.1063,3.57648 4.0024,6.66394 8.0933,5.22919 5.8897,-2.06555 3.7906,-9.76453 2.6836,-14.21374 -3.134,-12.59748 -8.9837,-24.55481 -16.6404,-35 -21.1202,-28.8125 -56.7399,-43.37262 -91.9846,-38.57483 m 151,118.57483 c 1.9296,24.41009 6.9905,48.38281 7,73 0,7.28479 2.09,18.46368 -0.858,25.24231 -2.9995,6.89709 -15.9684,11.25347 -22.142,14.95752 -17.9322,10.75909 -34.905,22.49774 -51,35.88122 -33.4243,27.7934 -60.5796,64.17481 -103,79.05396 -62.9253,22.07128 -126.129,-10.03846 -184,-31.45368 -35.599,-13.17346 -71.9188,-26.82922 -93,-60.68133 22.8997,9.52142 46.1276,17.7724 70,24.57867 12.3474,3.52039 26.0854,5.2738 38,9.88892 12.7543,4.94036 24.7574,13.04071 37,19.16204 32.2591,16.12952 68.672,29.07435 105,20.9452 27.2771,-6.10383 51.8293,-22.5749 70.9607,-42.57483 9.6011,-10.03693 17.3506,-22.11011 27.2129,-31.81556 16.5569,-16.29345 37.7896,-26.29333 53.5409,-44.18444 15.2151,-17.28199 26.7382,-36.46302 34.8604,-58 3.768,-9.99164 4.5459,-25.53955 10.4251,-34 m -489,530.99994 c 0,-43.3332 -5.3921,-88.7306 -31.4282,-125 -22.1757,-30.8914 -57.2331,-51.8261 -70.2268,-89 -11.3881,-32.5802 -2.14,-64.71828 -4.4344,-97.99994 -1.3943,-20.22535 -9.9498,-41.89331 -22.1497,-58 -30.4241,-40.16663 -82.9762,-51.07257 -116.9414,-87.09339 -11.3833,-12.0722 -25.1005,-29.7539 -26.8195,-46.90661 14.5972,-2.75031 40.7853,-8.00983 54.8156,-1.43592 5.6772,2.6601 9.9344,10.94196 14.2739,15.39655 8.6375,8.86645 18.7955,16.51312 28.9105,23.60107 36.1512,25.33258 75.9013,39.68909 102.2786,77.4383 30.9696,44.32141 32.5884,102.12683 61.1466,147.99994 26.7379,42.9491 71.2346,70.2803 89.7607,119 11.6727,30.6966 12.0385,68.4761 -2.9421,98 -4.3866,8.6453 -11.1815,21.2698 -20.2438,25.6822 -5.6631,2.7572 -13.0431,1.0545 -19,0.4876 -12.1194,-1.1533 -24.8315,-2.1363 -37,-2.1698 m 488,-367.99994 c -3.5477,18.29364 -6.4635,43.25311 -16.966,58.98535 -4.745,7.10779 -13.4013,12.73053 -20.034,18.0108 -17.0051,13.53771 -35.5415,26.02151 -55,35.75701 -15.3027,7.6563 -31.3855,14.49628 -48,18.76848 -5.5678,1.4317 -16.8932,1.7344 -19.7769,7.5871 -2.7195,5.5193 3.356,8.0895 7.7769,7.5972 10.2715,-1.1439 20.2668,-5.1276 30,-8.3726 36.0395,-12.0154 64.7869,-33.70728 96,-54.33334 -3.4157,33.34066 -35.3355,49.18734 -63,60.39574 -39.6844,16.0785 -82.4068,25.5738 -125,16.1799 -39.4542,-8.7017 -84.8208,-35.9785 -126,-22.8295 -56.8777,18.1616 -42.636,82.2022 -51,127.2538 h -1 c -8.4029,-65.0737 -70.3235,-99.5073 -101.547,-151.99998 -30.2819,-50.90969 -28.1063,-114.54977 -71.4676,-158.99996 -23.9433,-24.54444 -52.0108,-39.01532 -80.9854,-56.39966 -12.6849,-7.61078 -33.4654,-18.87696 -40,-32.60034 45.0585,3.55633 93.7283,25.11779 127,55.16973 38.7776,35.02497 66.2069,80.62153 105,115.66053 36.8345,33.26989 83.0744,42.92334 129,57.1953 51.0128,15.8527 98.3676,36.75058 153,28.70278 48.2641,-7.10958 86.7366,-40.46486 120,-73.72834 11.8649,-11.86487 23.4152,-24.18641 36,-35.28553 5.1757,-4.56463 9.5358,-9.97754 16,-12.71447 m -773,-133 c 12.3008,31.71264 31.6878,57.38024 60,76.65588 30.8816,21.0249 67.9868,32.87164 89.645,65.34412 17.3971,26.08368 20.9642,57.98315 13.4599,87.99996 -7.4679,29.87158 -22.8114,57.23978 -16.8441,88.99998 5.5256,29.4096 29.8545,51.9128 45.7362,76 18.2693,27.7083 28.003,59.8556 28.003,93 -7.7584,-0.6336 -30.1145,-4.2251 -34.9723,-10.7021 -2.9885,-3.9846 -0.8137,-13.45 -1.4521,-18.2979 -1.8066,-13.7197 -4.5877,-27.2867 -10.3456,-40 -15.0016,-33.1224 -54.4963,-61.2693 -57.1405,-99 -3.5466,-50.6085 36.4625,-99.93934 15.0377,-149.99994 -21.4653,-50.15528 -84.5582,-50.73725 -117.6882,-90 -13.1952,-15.63776 -22.8828,-34.55707 -29.0949,-54 -1.4666,-4.59064 -6.385,-15.00721 -3.3125,-19.48999 3.1237,-4.55732 13.9364,-5.53357 18.9684,-6.51001 m -33,11 c 13.106,40.98651 29.4965,76.78314 66,102.2785 27.4439,19.16772 62.3108,21.7312 81.9206,51.7215 32.01,48.95471 -18.6444,106.74094 -10.4816,158.99994 4.8302,30.9237 29.1982,53.1177 45.8905,78 14.2395,21.2261 21.1455,44.5434 21.6705,70 -19.2912,-1.9334 -38.0164,-16.8641 -50.9961,-30 -34.5206,-34.9361 -53.9486,-84.0156 -46.7323,-133 5.6291,-38.21 28.5606,-73.63798 10.2423,-111.99994 -14.7399,-30.86847 -48.9624,-37.13459 -76.5139,-51.25928 -19.0218,-9.75183 -33.8193,-25.7287 -44.9352,-43.74072 -10.2448,-16.60065 -16.4608,-36.09497 -20.7153,-55 -1.19,-5.28778 -4.7611,-15.45667 -2.7067,-20.67127 2.5856,-6.56293 20.8036,-14.16052 27.3572,-15.32873 m -39,23 c 10.5653,42.88519 20.6076,83.71795 58,112.10107 27.9701,21.23096 72.9917,22.56635 89.0995,57.89893 11.7058,25.67666 0.049,53.96804 -7.3788,78.99994 -4.255,14.3394 -6.6111,29.1062 -7.6312,44 -2.0507,29.9408 9.1686,60.3838 23.7833,86 5.0011,8.7658 12.5491,16.1639 17.1272,25 -14.6068,-6.5005 -35.2348,-19.9349 -45.7754,-32.0393 -6.2708,-7.2013 -8.9306,-19.0461 -11.8912,-27.9607 -6.5821,-19.8192 -8.6693,-41.188 -7.2439,-62 2.1699,-31.6808 9.2427,-65.73838 -4.4012,-95.99994 -11.8162,-26.20777 -37.5944,-36.24781 -59.6883,-51.7215 -16.3448,-11.44733 -29.593,-27.32135 -39.9383,-44.2785 -9.9472,-16.30475 -16.0831,-34.57959 -20.6882,-53 -1.4266,-5.70642 -4.8729,-14.11438 -3.3449,-20 1.8137,-6.98615 13.6299,-14.54737 19.9714,-17 m 309,23 c 20.2776,15.47247 47.5838,22.4259 66.9599,38.39044 7.0317,5.7937 11.4553,15.3974 16.9391,22.60956 8.0114,10.53668 17.5572,20.09698 28.101,28.10107 22.3548,16.97003 49.2127,24.96918 75,35.10187 59.6297,23.43048 128.4866,52.53162 192,25.36957 29.8946,-12.78467 51.6908,-35.77015 75,-57.48304 26.0251,-24.24279 55.7743,-50.18316 89,-64.08947 -0.604,7.65338 -0.2137,20.1745 -4.013,26.91052 -3.6275,6.43115 -12.6109,11.17169 -17.987,16.17895 -13.6137,12.67969 -26.8393,25.74573 -40,38.91053 -16.2292,16.23449 -31.9795,33.56768 -51,46.65277 -12.5003,8.59959 -25.6848,16.45139 -40,21.65209 -63.576,23.09688 -122.503,-3.6511 -183,-22.96075 -39.3177,-12.54956 -79.2949,-20.58154 -112,-47.59411 -27.6701,-22.85401 -49.1997,-52.74079 -72.5755,-79.75 -5.3806,-6.21686 -22.5994,-19.77704 -22.4245,-28 m -340,4 c 5.7198,42.47656 28.1186,84.25036 61,111.56482 19.6078,16.28802 46.9023,24.26843 60.1272,47.43518 17.0592,29.88326 6.6753,65.83784 5.8875,97.99994 -0.3087,12.6045 -0.5446,25.5235 1.4243,38 1.5859,10.0502 5.6807,19.9052 6.561,30 -10.0733,-7.0958 -27.7738,-22.2505 -32.2577,-34 -3.3446,-8.7641 0.021,-20.9218 0.2431,-30 0.5646,-23.0488 2.4031,-45.8085 -5.6806,-68 -11.1446,-30.59458 -38.5615,-47.86951 -61.3048,-69.08942 -17.0033,-15.86444 -30.8554,-36.58734 -39.9992,-57.91052 -5.321,-12.4087 -14.5229,-34.18189 -10.3727,-48 1.9676,-6.55133 8.9682,-12.02631 12.3719,-18 h 2 m 262.4337,32.03241 c -6.3979,4.25494 1.4207,12.71569 4.581,15.96759 16.686,17.16961 27.8227,37.45922 32.6998,61 7.5698,36.53845 -5.1322,76.08366 10.5973,110.99994 18.4368,40.9261 62.8647,62.6592 77.6852,106 7.3205,21.4082 7.7171,47.1906 18.8789,67 6.2832,11.1512 17.4767,19.1648 30.1241,11.9113 17.6206,-10.1058 17.7638,-36.4157 15.2709,-53.9113 -7.5137,-52.732 -46.4487,-80.0715 -76.3975,-120 -9.8628,-13.1493 -18.705,-26.7197 -24.8741,-41.99998 -1.8416,-4.5612 -4.5109,-11.9971 -10.8912,-10.6381 -5.4897,1.1693 -3.693,7.9761 -2.409,11.6381 3.8246,10.90778 9.5248,21.15738 15.5038,30.99998 24.5125,40.3522 69.0239,67.3487 83.0772,114 4.2879,14.2345 7.9314,32.5618 2.6265,47 -1.8315,4.9849 -6.437,13.4833 -12.9027,12.5733 -7.6219,-1.0727 -11.0849,-13.4563 -12.9784,-19.5733 -6.5799,-21.2573 -8.6203,-43.3623 -17.453,-64 -16.2458,-37.9586 -56.3941,-57.8521 -73.26,-95 -15.9404,-35.10948 -3.5232,-77.81281 -11.7369,-114.99994 -4.7031,-21.29309 -14.4835,-40.6073 -28.8618,-57 -3.4638,-3.94904 -12.8382,-16.25177 -19.2801,-11.96759 M 1745,803.42746 c -6.131,8.70349 -14.9173,16.00293 -23,22.86572 -7.5849,6.44031 -16.0892,12.29767 -25,16.76391 -45.8512,22.98157 -85.8028,4.35511 -129,-13.62963 6.4192,-2.69367 14.2671,-0.0861 21,-0.004 16.7555,0.20471 33.2244,1.4306 50,-0.16589 23.0303,-2.19178 45.7854,-5.8595 68,-12.55017 12.5176,-3.77008 25.2597,-11.08631 38,-13.28009 m -752,39 c 11.2748,11.77099 19.893,25.63263 32,36.91052 20.3238,18.93194 45.354,34.76759 55.3048,62.08947 9.0634,24.8853 3.6952,53.1953 3.6952,79 -11.8969,-5.7974 -21.4535,-25.1801 -28.6666,-36 -21.3884,-32.0825 -39.3492,-67.40928 -51.666,-103.99999 -3.5822,-10.64228 -12.0853,-26.72962 -10.6674,-38 m 391.0039,17.85803 c -15.2345,6.22986 -5.4026,31.86127 -0.6952,42.14197 10.1596,22.18781 24.8694,43.34619 42.706,59.99999 11.4426,10.6838 26.5541,17.5705 41.9853,11.0448 6.1907,-2.618 12.2395,-7.3629 16.9607,-12.0841 3.5403,-3.5404 6.6592,-7.625 9.1635,-11.9607 1.8087,-3.1313 3.3885,-6.4597 4.1953,-10 5.9802,-26.24228 -30.3283,-28.00398 -46.3195,-34.87267 -6.3735,-2.73761 -12.5418,-6.5279 -18,-10.79554 -11.2957,-8.83203 -20.2566,-20.40454 -32,-28.61029 -5.0586,-3.53479 -11.6338,-7.46521 -17.9961,-4.86346 M 1389,871.42731 c 13.8936,8.54315 24.2731,21.27404 37,31.33483 9.8023,7.74888 20.0945,12.95448 32,16.63968 8.0474,2.4909 18.1137,3.224 24.8911,8.6636 5.7254,4.5951 3.482,11.06418 9e-4,16.36188 -5.8433,8.8925 -16.5501,19.3434 -27.892,19.4244 -10.195,0.073 -17.2632,-6.6793 -24,-13.4244 -14.7354,-14.75348 -25.9831,-32.42428 -35.2469,-50.99999 -3.6445,-7.30805 -10.1079,-19.77472 -6.7531,-28 m -126,76.99999 c 4.201,53.1426 51.3262,80.9966 79.2786,121 23.4951,33.6245 26.7214,73.3565 26.7214,113 l -39,-7 c 0,-33.6344 -9.0757,-67.2005 -26.4498,-96 -11.8142,-19.5832 -28.7246,-35.9209 -39.6497,-56 -12.7801,-23.4886 -12.0811,-50.3711 -2.9005,-75 h 2 m 554,9 c -6.4464,27.4476 -30.253,35.7229 -54,43.0247 -43.8512,13.4836 -87.8545,22.0095 -133,9.0657 -25.6849,-7.3643 -57.6454,-27.0655 -83,-7.5611 -25.6852,19.7588 -17.6717,47.7724 -18.4105,75.4707 -0.7948,29.7984 -10.1581,57.3155 -26.9336,82 -5.2235,7.6862 -11.5209,18.2925 -19.6559,23.142 -6.9907,4.1674 -17.2614,2.0156 -25,3.858 2.2873,-8.4001 9.7742,-16.0997 13.7523,-24 7.1425,-14.1842 11.7106,-28.5881 15.3635,-44 6.6495,-28.056 6.7919,-57.4282 8.7948,-86 1.5747,-22.4633 5.1539,-46.5894 25.0894,-60.5601 13.4524,-9.4275 31.3518,-9.589 47,-7.4399 34.0085,4.6708 65.0044,21.9811 99,26.8689 40.0667,5.7605 77.7207,-3.1943 115,-17.6798 12.2382,-4.7554 23.7381,-11.7267 36,-16.1891 m -32,49 c -4.3883,9.5806 -16.8232,25.584 -26.0039,30.9113 -7.5912,4.4049 -18.5122,5.8987 -26.9961,7.9591 -25.8021,6.2664 -50.6649,8.7895 -77,4.7053 -22.7202,-3.5237 -49.0653,-13.7734 -70,1.2129 -20.4818,14.6621 -20.3488,39.7557 -24.25,62.2114 -2.1286,12.2528 -6.2257,23.6341 -11.1744,35 -3.1659,7.2712 -8.0908,19.5203 -14.7608,24.1459 -7.992,5.5425 -23.3271,6.6289 -32.8148,7.8541 3.8454,-9.9428 12.5628,-18.7069 17.9884,-28 9.1851,-15.732 15.321,-33.0993 18.5486,-51 4.7909,-26.5708 -10.0663,-69.0827 13.4669,-88.6705 8.0578,-6.7069 18.0584,-6.9834 27.9961,-6.3048 22.8465,1.5602 44.4348,15.2875 67,19.5155 31.0367,5.8153 62.7538,1.7263 93,-6.2748 14.861,-3.9311 29.8277,-11.0246 45,-13.2654 m -44,50 c -7.7552,11.0094 -27.2297,31.2063 -41,33.6706 -26.7693,4.7904 -53.4225,-10.6947 -79,4.7939 -23.6015,14.2921 -19.8329,42.3386 -35.6991,61.2609 -6.0232,7.1833 -22.6318,9.4538 -31.3009,12.2746 4.6316,-16.0471 13.8532,-30.3628 17.5749,-47 4.0167,-17.9563 1.0937,-44.3399 16.5185,-57.4814 22.5258,-19.1914 60.1151,-1.3743 85.9066,0.392 23.1612,1.586 44.3391,-6.1071 67,-7.9106 m -54,46 v 1 c -27.7264,17.0307 -54.4474,35.1465 -85,47 1.0688,-6.2107 3.8485,-12.1714 6.2007,-18 2.7998,-6.9377 6.0111,-14.0717 10.699,-19.9598 16.5251,-20.7566 46.04,-10.2228 68.1003,-10.0402 z"
       id="path1" />
  </g>
</svg>
